<mxfile host="Electron" agent="Mozilla/5.0 (Windows NT 10.0; Win64; x64) AppleWebKit/537.36 (KHTML, like Gecko) draw.io/27.0.9 Chrome/134.0.6998.205 Electron/35.4.0 Safari/537.36" version="27.0.9">
  <diagram name="PÃ¡gina-1" id="CIrjRX84z1-Arg9yQqjJ">
    <mxGraphModel dx="2560" dy="3260" grid="1" gridSize="10" guides="1" tooltips="1" connect="1" arrows="1" fold="1" page="1" pageScale="1" pageWidth="827" pageHeight="1169" math="0" shadow="0">
      <root>
        <mxCell id="0" />
        <mxCell id="1" parent="0" />
        <mxCell id="dnf0PhwW2HOMbXEhlNmW-3" value="" style="rounded=0;whiteSpace=wrap;html=1;" vertex="1" parent="1">
          <mxGeometry x="160" y="130" width="240" height="640" as="geometry" />
        </mxCell>
        <mxCell id="dnf0PhwW2HOMbXEhlNmW-1" value="Index.html" style="html=1;dropTarget=0;whiteSpace=wrap;" vertex="1" parent="1">
          <mxGeometry x="190" y="240" width="180" height="90" as="geometry" />
        </mxCell>
        <mxCell id="dnf0PhwW2HOMbXEhlNmW-2" value="" style="shape=module;jettyWidth=15;jettyHeight=3;" vertex="1" parent="dnf0PhwW2HOMbXEhlNmW-1">
          <mxGeometry x="1" width="20" height="20" relative="1" as="geometry">
            <mxPoint x="-27" y="7" as="offset" />
          </mxGeometry>
        </mxCell>
        <mxCell id="dnf0PhwW2HOMbXEhlNmW-4" value="&lt;font style=&quot;font-size: 24px;&quot;&gt;&lt;b&gt;GUI&lt;/b&gt;&lt;/font&gt;" style="text;html=1;align=center;verticalAlign=middle;whiteSpace=wrap;rounded=0;" vertex="1" parent="1">
          <mxGeometry x="205" y="150" width="150" height="70" as="geometry" />
        </mxCell>
        <mxCell id="dnf0PhwW2HOMbXEhlNmW-5" value="script.js" style="html=1;dropTarget=0;whiteSpace=wrap;" vertex="1" parent="1">
          <mxGeometry x="190" y="370" width="180" height="90" as="geometry" />
        </mxCell>
        <mxCell id="dnf0PhwW2HOMbXEhlNmW-6" value="" style="shape=module;jettyWidth=15;jettyHeight=3;" vertex="1" parent="dnf0PhwW2HOMbXEhlNmW-5">
          <mxGeometry x="1" width="20" height="20" relative="1" as="geometry">
            <mxPoint x="-27" y="7" as="offset" />
          </mxGeometry>
        </mxCell>
        <mxCell id="dnf0PhwW2HOMbXEhlNmW-7" value="main.js" style="html=1;dropTarget=0;whiteSpace=wrap;" vertex="1" parent="1">
          <mxGeometry x="190" y="500" width="180" height="90" as="geometry" />
        </mxCell>
        <mxCell id="dnf0PhwW2HOMbXEhlNmW-8" value="" style="shape=module;jettyWidth=15;jettyHeight=3;" vertex="1" parent="dnf0PhwW2HOMbXEhlNmW-7">
          <mxGeometry x="1" width="20" height="20" relative="1" as="geometry">
            <mxPoint x="-27" y="7" as="offset" />
          </mxGeometry>
        </mxCell>
        <mxCell id="dnf0PhwW2HOMbXEhlNmW-9" value="styles.css" style="html=1;dropTarget=0;whiteSpace=wrap;" vertex="1" parent="1">
          <mxGeometry x="190" y="634.5" width="180" height="90" as="geometry" />
        </mxCell>
        <mxCell id="dnf0PhwW2HOMbXEhlNmW-10" value="" style="shape=module;jettyWidth=15;jettyHeight=3;" vertex="1" parent="dnf0PhwW2HOMbXEhlNmW-9">
          <mxGeometry x="1" width="20" height="20" relative="1" as="geometry">
            <mxPoint x="-27" y="7" as="offset" />
          </mxGeometry>
        </mxCell>
        <mxCell id="dnf0PhwW2HOMbXEhlNmW-11" value="" style="rounded=0;whiteSpace=wrap;html=1;" vertex="1" parent="1">
          <mxGeometry x="530" y="190" width="1520" height="540" as="geometry" />
        </mxCell>
        <mxCell id="dnf0PhwW2HOMbXEhlNmW-12" value="&lt;font style=&quot;font-size: 24px;&quot;&gt;&lt;b style=&quot;&quot;&gt;BACKEND&lt;/b&gt;&lt;/font&gt;" style="text;html=1;align=center;verticalAlign=middle;whiteSpace=wrap;rounded=0;" vertex="1" parent="1">
          <mxGeometry x="600" y="220" width="60" height="30" as="geometry" />
        </mxCell>
        <mxCell id="dnf0PhwW2HOMbXEhlNmW-14" value="&amp;nbsp;app.js" style="html=1;dropTarget=0;whiteSpace=wrap;" vertex="1" parent="1">
          <mxGeometry x="570" y="410" width="180" height="90" as="geometry" />
        </mxCell>
        <mxCell id="dnf0PhwW2HOMbXEhlNmW-15" value="" style="shape=module;jettyWidth=15;jettyHeight=3;" vertex="1" parent="dnf0PhwW2HOMbXEhlNmW-14">
          <mxGeometry x="1" width="20" height="20" relative="1" as="geometry">
            <mxPoint x="-27" y="7" as="offset" />
          </mxGeometry>
        </mxCell>
        <mxCell id="dnf0PhwW2HOMbXEhlNmW-16" value="Router (climaRoutes.js)" style="html=1;dropTarget=0;whiteSpace=wrap;" vertex="1" parent="1">
          <mxGeometry x="805" y="410" width="180" height="90" as="geometry" />
        </mxCell>
        <mxCell id="dnf0PhwW2HOMbXEhlNmW-17" value="" style="shape=module;jettyWidth=15;jettyHeight=3;" vertex="1" parent="dnf0PhwW2HOMbXEhlNmW-16">
          <mxGeometry x="1" width="20" height="20" relative="1" as="geometry">
            <mxPoint x="-27" y="7" as="offset" />
          </mxGeometry>
        </mxCell>
        <mxCell id="dnf0PhwW2HOMbXEhlNmW-18" value="Controlador (ClimaController.js)" style="html=1;dropTarget=0;whiteSpace=wrap;" vertex="1" parent="1">
          <mxGeometry x="1040" y="410" width="180" height="90" as="geometry" />
        </mxCell>
        <mxCell id="dnf0PhwW2HOMbXEhlNmW-19" value="" style="shape=module;jettyWidth=15;jettyHeight=3;" vertex="1" parent="dnf0PhwW2HOMbXEhlNmW-18">
          <mxGeometry x="1" width="20" height="20" relative="1" as="geometry">
            <mxPoint x="-27" y="7" as="offset" />
          </mxGeometry>
        </mxCell>
        <mxCell id="dnf0PhwW2HOMbXEhlNmW-20" value="Servicio (ClimaService.js)" style="html=1;dropTarget=0;whiteSpace=wrap;" vertex="1" parent="1">
          <mxGeometry x="1280" y="410" width="180" height="90" as="geometry" />
        </mxCell>
        <mxCell id="dnf0PhwW2HOMbXEhlNmW-21" value="" style="shape=module;jettyWidth=15;jettyHeight=3;" vertex="1" parent="dnf0PhwW2HOMbXEhlNmW-20">
          <mxGeometry x="1" width="20" height="20" relative="1" as="geometry">
            <mxPoint x="-27" y="7" as="offset" />
          </mxGeometry>
        </mxCell>
        <mxCell id="dnf0PhwW2HOMbXEhlNmW-22" value="Modelo de Persistencia (ClimaModel.js)" style="html=1;dropTarget=0;whiteSpace=wrap;" vertex="1" parent="1">
          <mxGeometry x="1520" y="230" width="180" height="90" as="geometry" />
        </mxCell>
        <mxCell id="dnf0PhwW2HOMbXEhlNmW-23" value="" style="shape=module;jettyWidth=15;jettyHeight=3;" vertex="1" parent="dnf0PhwW2HOMbXEhlNmW-22">
          <mxGeometry x="1" width="20" height="20" relative="1" as="geometry">
            <mxPoint x="-27" y="7" as="offset" />
          </mxGeometry>
        </mxCell>
        <mxCell id="dnf0PhwW2HOMbXEhlNmW-24" value="API de Clima (MSForecast.js)" style="html=1;dropTarget=0;whiteSpace=wrap;" vertex="1" parent="1">
          <mxGeometry x="1520" y="590" width="180" height="90" as="geometry" />
        </mxCell>
        <mxCell id="dnf0PhwW2HOMbXEhlNmW-25" value="" style="shape=module;jettyWidth=15;jettyHeight=3;" vertex="1" parent="dnf0PhwW2HOMbXEhlNmW-24">
          <mxGeometry x="1" width="20" height="20" relative="1" as="geometry">
            <mxPoint x="-27" y="7" as="offset" />
          </mxGeometry>
        </mxCell>
        <mxCell id="dnf0PhwW2HOMbXEhlNmW-26" value="registros.json" style="html=1;dropTarget=0;whiteSpace=wrap;" vertex="1" parent="1">
          <mxGeometry x="1790" y="230" width="180" height="90" as="geometry" />
        </mxCell>
        <mxCell id="dnf0PhwW2HOMbXEhlNmW-27" value="" style="shape=module;jettyWidth=15;jettyHeight=3;" vertex="1" parent="dnf0PhwW2HOMbXEhlNmW-26">
          <mxGeometry x="1" width="20" height="20" relative="1" as="geometry">
            <mxPoint x="-27" y="7" as="offset" />
          </mxGeometry>
        </mxCell>
        <mxCell id="dnf0PhwW2HOMbXEhlNmW-34" value="HTTP/fetch" style="endArrow=open;endSize=12;dashed=1;html=1;rounded=0;" edge="1" parent="1" source="dnf0PhwW2HOMbXEhlNmW-5" target="dnf0PhwW2HOMbXEhlNmW-14">
          <mxGeometry x="-0.0055" width="160" relative="1" as="geometry">
            <mxPoint x="280" y="350" as="sourcePoint" />
            <mxPoint x="280" y="390" as="targetPoint" />
            <mxPoint as="offset" />
          </mxGeometry>
        </mxCell>
        <mxCell id="dnf0PhwW2HOMbXEhlNmW-35" value="HTTP/fetch" style="endArrow=open;endSize=12;dashed=1;html=1;rounded=0;" edge="1" parent="1" source="dnf0PhwW2HOMbXEhlNmW-7" target="dnf0PhwW2HOMbXEhlNmW-14">
          <mxGeometry width="160" relative="1" as="geometry">
            <mxPoint x="440" y="430" as="sourcePoint" />
            <mxPoint x="640" y="452" as="targetPoint" />
            <mxPoint as="offset" />
          </mxGeometry>
        </mxCell>
        <mxCell id="dnf0PhwW2HOMbXEhlNmW-36" value="Use" style="endArrow=open;endSize=12;dashed=1;html=1;rounded=0;" edge="1" parent="1" source="dnf0PhwW2HOMbXEhlNmW-14" target="dnf0PhwW2HOMbXEhlNmW-16">
          <mxGeometry width="160" relative="1" as="geometry">
            <mxPoint x="640" y="430" as="sourcePoint" />
            <mxPoint x="800" y="430" as="targetPoint" />
          </mxGeometry>
        </mxCell>
        <mxCell id="dnf0PhwW2HOMbXEhlNmW-37" value="Use" style="endArrow=open;endSize=12;dashed=1;html=1;rounded=0;" edge="1" parent="1" source="dnf0PhwW2HOMbXEhlNmW-16" target="dnf0PhwW2HOMbXEhlNmW-18">
          <mxGeometry x="0.0119" width="160" relative="1" as="geometry">
            <mxPoint x="970" y="454.47" as="sourcePoint" />
            <mxPoint x="1025" y="454.47" as="targetPoint" />
            <mxPoint as="offset" />
          </mxGeometry>
        </mxCell>
        <mxCell id="dnf0PhwW2HOMbXEhlNmW-38" value="Use" style="endArrow=open;endSize=12;dashed=1;html=1;rounded=0;" edge="1" parent="1" source="dnf0PhwW2HOMbXEhlNmW-18" target="dnf0PhwW2HOMbXEhlNmW-20">
          <mxGeometry x="0.0119" width="160" relative="1" as="geometry">
            <mxPoint x="1213" y="470" as="sourcePoint" />
            <mxPoint x="1268" y="470" as="targetPoint" />
            <mxPoint as="offset" />
          </mxGeometry>
        </mxCell>
        <mxCell id="dnf0PhwW2HOMbXEhlNmW-39" value="Use" style="endArrow=open;endSize=12;dashed=1;html=1;rounded=0;" edge="1" parent="1" source="dnf0PhwW2HOMbXEhlNmW-20" target="dnf0PhwW2HOMbXEhlNmW-22">
          <mxGeometry width="160" relative="1" as="geometry">
            <mxPoint x="1390" y="480" as="sourcePoint" />
            <mxPoint x="1550" y="480" as="targetPoint" />
          </mxGeometry>
        </mxCell>
        <mxCell id="dnf0PhwW2HOMbXEhlNmW-40" value="Use" style="endArrow=open;endSize=12;dashed=1;html=1;rounded=0;" edge="1" parent="1" source="dnf0PhwW2HOMbXEhlNmW-20" target="dnf0PhwW2HOMbXEhlNmW-24">
          <mxGeometry width="160" relative="1" as="geometry">
            <mxPoint x="1510" y="510" as="sourcePoint" />
            <mxPoint x="1630" y="420" as="targetPoint" />
          </mxGeometry>
        </mxCell>
        <mxCell id="dnf0PhwW2HOMbXEhlNmW-41" value="Use" style="endArrow=open;endSize=12;dashed=1;html=1;rounded=0;" edge="1" parent="1" source="dnf0PhwW2HOMbXEhlNmW-22" target="dnf0PhwW2HOMbXEhlNmW-26">
          <mxGeometry width="160" relative="1" as="geometry">
            <mxPoint x="1640" y="520" as="sourcePoint" />
            <mxPoint x="1760" y="610" as="targetPoint" />
          </mxGeometry>
        </mxCell>
      </root>
    </mxGraphModel>
  </diagram>
</mxfile>
